HIERARCHY
ROOT Hips
{
    OFFSET   0.000000   0.000000   0.000000
    CHANNELS 6 Xposition Yposition Zposition Zrotation Xrotation Yrotation
    JOINT Chest
    {
        OFFSET   0.000000   8.007240   0.000000
        CHANNELS 3 Zrotation Xrotation Yrotation
        JOINT Chest2
        {
            OFFSET   0.000000  22.077100   0.000000
            CHANNELS 3 Zrotation Xrotation Yrotation
            JOINT Neck
            {
                OFFSET   0.000000  23.254800   0.000000
                CHANNELS 3 Zrotation Xrotation Yrotation
                JOINT Head
                {
                    OFFSET   0.000000  14.370000   1.956600
                    CHANNELS 3 Zrotation Xrotation Yrotation
                    End Site
                    {
                        OFFSET   0.000000  19.566000   0.000000
                    }
                }
            }
            JOINT LeftCollar
            {
                OFFSET   3.911900  19.017000  -0.467064
                CHANNELS 3 Zrotation Xrotation Yrotation
                JOINT LeftShoulder
                {
                    OFFSET  10.383700   0.000000   0.000000
                    CHANNELS 3 Zrotation Xrotation Yrotation
                    JOINT LeftElbow
                    {
                        OFFSET  26.662100   0.001476   0.000517
                        CHANNELS 3 Zrotation Xrotation Yrotation
                        JOINT LeftWrist
                        {
                            OFFSET  28.869000  -0.000025  -0.000106
                            CHANNELS 3 Zrotation Xrotation Yrotation
                            JOINT LeftFinger0
                            {
                                OFFSET   2.044660  -2.323460   3.252850
                                CHANNELS 3 Zrotation Xrotation Yrotation
                                JOINT LeftFinger01
                                {
                                    OFFSET   3.088130   0.000000   0.000000
                                    CHANNELS 3 Zrotation Xrotation Yrotation
                                    JOINT LeftFinger02
                                    {
                                        OFFSET   2.639460   0.000000   0.000000
                                        CHANNELS 3 Zrotation Xrotation Yrotation
                                        End Site
                                        {
                                            OFFSET   2.582190   0.000000   0.000000
                                        }
                                    }
                                }
                            }
                            JOINT LeftFinger1
                            {
                                OFFSET   8.364480   0.000000   3.252850
                                CHANNELS 3 Zrotation Xrotation Yrotation
                                JOINT LeftFinger11
                                {
                                    OFFSET   4.646930   0.000000   0.000000
                                    CHANNELS 3 Zrotation Xrotation Yrotation
                                    JOINT LeftFinger12
                                    {
                                        OFFSET   2.323460   0.000000   0.000000
                                        CHANNELS 3 Zrotation Xrotation Yrotation
                                        End Site
                                        {
                                            OFFSET   2.273050   0.000000   0.000000
                                        }
                                    }
                                }
                            }
                            JOINT LeftFinger2
                            {
                                OFFSET   8.364490   0.000015   1.078090
                                CHANNELS 3 Zrotation Xrotation Yrotation
                                JOINT LeftFinger21
                                {
                                    OFFSET   5.111620   0.000000   0.000000
                                    CHANNELS 3 Zrotation Xrotation Yrotation
                                    JOINT LeftFinger22
                                    {
                                        OFFSET   2.788160   0.000016   0.000000
                                        CHANNELS 3 Zrotation Xrotation Yrotation
                                        End Site
                                        {
                                            OFFSET   2.727660   0.000000   0.000000
                                        }
                                    }
                                }
                            }
                            JOINT LeftFinger3
                            {
                                OFFSET   7.899780   0.000017  -1.078090
                                CHANNELS 3 Zrotation Xrotation Yrotation
                                JOINT LeftFinger31
                                {
                                    OFFSET   4.646930   0.000000   0.000000
                                    CHANNELS 3 Zrotation Xrotation Yrotation
                                    JOINT LeftFinger32
                                    {
                                        OFFSET   2.323470   0.000000   0.000000
                                        CHANNELS 3 Zrotation Xrotation Yrotation
                                        End Site
                                        {
                                            OFFSET   2.273050   0.000000   0.000000
                                        }
                                    }
                                }
                            }
                            JOINT LeftFinger4
                            {
                                OFFSET   7.435090   0.000000  -3.252850
                                CHANNELS 3 Zrotation Xrotation Yrotation
                                JOINT LeftFinger41
                                {
                                    OFFSET   3.717550   0.000000   0.000000
                                    CHANNELS 3 Zrotation Xrotation Yrotation
                                    JOINT LeftFinger42
                                    {
                                        OFFSET   1.858770   0.000000   0.000000
                                        CHANNELS 3 Zrotation Xrotation Yrotation
                                        End Site
                                        {
                                            OFFSET   1.818440   0.000000   0.000000
                                        }
                                    }
                                }
                            }
                        }
                    }
                }
            }
            JOINT RightCollar
            {
                OFFSET  -3.911900  19.017000  -0.467063
                CHANNELS 3 Zrotation Xrotation Yrotation
                JOINT RightShoulder
                {
                    OFFSET -10.383700   0.000019   0.000000
                    CHANNELS 3 Zrotation Xrotation Yrotation
                    JOINT RightElbow
                    {
                        OFFSET -26.662100   0.001175   0.000102
                        CHANNELS 3 Zrotation Xrotation Yrotation
                        JOINT RightWrist
                        {
                            OFFSET -28.869000   0.000016  -0.000079
                            CHANNELS 3 Zrotation Xrotation Yrotation
                            JOINT RightFinger0
                            {
                                OFFSET  -2.044660  -2.323490   3.252850
                                CHANNELS 3 Zrotation Xrotation Yrotation
                                JOINT RightFinger01
                                {
                                    OFFSET  -3.088140   0.000000   0.000000
                                    CHANNELS 3 Zrotation Xrotation Yrotation
                                    JOINT RightFinger02
                                    {
                                        OFFSET  -2.639460   0.000000   0.000000
                                        CHANNELS 3 Zrotation Xrotation Yrotation
                                        End Site
                                        {
                                            OFFSET  -2.582190   0.000000   0.000000
                                        }
                                    }
                                }
                            }
                            JOINT RightFinger1
                            {
                                OFFSET  -8.364480   0.000000   3.252850
                                CHANNELS 3 Zrotation Xrotation Yrotation
                                JOINT RightFinger11
                                {
                                    OFFSET  -4.646930   0.000000   0.000000
                                    CHANNELS 3 Zrotation Xrotation Yrotation
                                    JOINT RightFinger12
                                    {
                                        OFFSET  -2.323470   0.000000   0.000000
                                        CHANNELS 3 Zrotation Xrotation Yrotation
                                        End Site
                                        {
                                            OFFSET  -2.273050   0.000000   0.000000
                                        }
                                    }
                                }
                            }
                            JOINT RightFinger2
                            {
                                OFFSET  -8.364480   0.000000   1.078090
                                CHANNELS 3 Zrotation Xrotation Yrotation
                                JOINT RightFinger21
                                {
                                    OFFSET  -5.111620   0.000000   0.000000
                                    CHANNELS 3 Zrotation Xrotation Yrotation
                                    JOINT RightFinger22
                                    {
                                        OFFSET  -2.788160   0.000000   0.000000
                                        CHANNELS 3 Zrotation Xrotation Yrotation
                                        End Site
                                        {
                                            OFFSET  -2.727660   0.000000   0.000000
                                        }
                                    }
                                }
                            }
                            JOINT RightFinger3
                            {
                                OFFSET  -7.899780   0.000000  -1.078090
                                CHANNELS 3 Zrotation Xrotation Yrotation
                                JOINT RightFinger31
                                {
                                    OFFSET  -4.646930   0.000000   0.000000
                                    CHANNELS 3 Zrotation Xrotation Yrotation
                                    JOINT RightFinger32
                                    {
                                        OFFSET  -2.323470   0.000000   0.000000
                                        CHANNELS 3 Zrotation Xrotation Yrotation
                                        End Site
                                        {
                                            OFFSET  -2.273050   0.000000   0.000000
                                        }
                                    }
                                }
                            }
                            JOINT RightFinger4
                            {
                                OFFSET  -7.435090   0.000000  -3.252850
                                CHANNELS 3 Zrotation Xrotation Yrotation
                                JOINT RightFinger41
                                {
                                    OFFSET  -3.717550   0.000000   0.000000
                                    CHANNELS 3 Zrotation Xrotation Yrotation
                                    JOINT RightFinger42
                                    {
                                        OFFSET  -1.858770   0.000000   0.000000
                                        CHANNELS 3 Zrotation Xrotation Yrotation
                                        End Site
                                        {
                                            OFFSET  -1.818440   0.000000   0.000000
                                        }
                                    }
                                }
                            }
                        }
                    }
                }
            }
        }
    }
    JOINT LeftHip
    {
        OFFSET   9.783040   0.000000   0.000000
        CHANNELS 3 Zrotation Xrotation Yrotation
        JOINT LeftKnee
        {
            OFFSET   0.000032 -41.789100  -0.002222
            CHANNELS 3 Zrotation Xrotation Yrotation
            JOINT LeftAnkle
            {
                OFFSET   0.000087 -41.133200  -0.000135
                CHANNELS 3 Zrotation Xrotation Yrotation
                JOINT LeftToe
                {
                    OFFSET   0.000000  -6.358960  14.674500
                    CHANNELS 3 Zrotation Xrotation Yrotation
                    End Site
                    {
                        OFFSET   0.000000   0.000000   3.913200
                    }
                }
            }
        }
    }
    JOINT RightHip
    {
        OFFSET  -9.783040   0.000000   0.000000
        CHANNELS 3 Zrotation Xrotation Yrotation
        JOINT RightKnee
        {
            OFFSET   0.000047 -41.789100  -0.000896
            CHANNELS 3 Zrotation Xrotation Yrotation
            JOINT RightAnkle
            {
                OFFSET  -0.000117 -41.133300  -0.000248
                CHANNELS 3 Zrotation Xrotation Yrotation
                JOINT RightToe
                {
                    OFFSET   0.000000  -6.358970  14.674500
                    CHANNELS 3 Zrotation Xrotation Yrotation
                    End Site
                    {
                        OFFSET   0.000000   0.000000   3.913200
                    }
                }
            }
        }
    }
}
MOTION
Frames: 4
Frame Time:   0.016667
 -1.315850  89.571200  -1.429410  -0.513079  -3.553460   1.265770   0.089951   3.491450  -1.234060   0.256093   6.980120  -2.480550   0.853441  -1.258520   0.020549   1.402470  -2.550440   5.540310  -9.488540   0.831099  -1.095390 -68.049100  12.556000  -4.423320  -2.868820  -9.114380  -8.243210   2.702380  -7.324280   4.205930  37.024900  27.338700 -51.649000 -32.410100   0.003365   0.002136 -11.208300   0.002054  -0.001889 -34.405700   4.513040  -6.553450 -28.365700  -0.000678  -0.011059 -19.856000   0.004593  -0.005825 -28.446900  -0.114967   0.193353 -35.583400  -0.000499   0.000185 -23.687400  -0.000951  -0.004835 -28.625500  -1.182580   2.164700 -38.178900  -0.001046  -0.000176 -25.427200  -0.001061  -0.003135 -33.001800  -2.212820   3.387120 -49.601300  -0.003257  -0.000468 -33.034500   0.001410  -0.001499  10.410400  -1.051520  10.079600  71.588800   4.823480  -1.823970   0.750803  -3.263170   9.469100 -11.905000 -11.021100   5.761070 -38.629500  35.826400  69.455400  33.475100   0.000905  -0.001268  11.725700  -0.009968   0.000000  29.440900   7.437860  12.921500  24.777700   0.001038  -0.001328  17.344400  -0.009281   0.009973  28.078800   4.891250   9.083070  35.730400  -0.005989  -0.004843  23.801900  -0.009751  -0.004472  28.404700   4.126850   7.582050  38.473700  -0.002855  -0.002105  25.610900  -0.001493   0.005218  35.517600   0.121228   0.169940  53.276700  -0.002001   0.001928  35.482300   0.004999   0.008328   3.108950   5.055840   1.049890   1.276350   0.186070   7.239710  -5.675000  -1.556940   0.865048   0.000000   0.000000  -0.000000  -0.636641   3.005560  -3.926410   1.758340   2.112650  -8.811420  -3.146630  -2.367750  -2.653570  -0.000000   0.000000  -0.000000
 -1.315740  89.571200  -1.415680  -0.513505  -3.556250   1.257230   0.091153   3.493920  -1.233070   0.258498   6.985060  -2.478650   0.853293  -1.265450   0.020574   1.402850  -2.564230   5.540400  -9.488700   0.823087  -1.094880 -68.053500  12.562800  -4.423890  -2.866490  -9.110310  -8.238440   2.702540  -7.320160   4.209460  37.021200  27.332100 -51.635900 -32.409700   0.003351   0.002129 -11.208100   0.002049  -0.001888 -34.406800   4.508230  -6.546620 -28.365400  -0.000677  -0.011057 -19.855800   0.004597  -0.005821 -28.447000  -0.115064   0.198528 -35.575000  -0.000498   0.000195 -23.687400  -0.000953  -0.004837 -28.625600  -1.182740   2.164690 -38.178900  -0.001047  -0.000169 -25.427200  -0.001066  -0.003136 -32.993800  -2.212690   3.392000 -49.589300  -0.003263  -0.000471 -33.026500   0.001400  -0.001503  10.414300  -1.071070  10.088300  71.594700   4.839740  -1.831860   0.747857  -3.282480   9.461510 -11.902900 -11.035100   5.761260 -38.644600  35.851500  69.480400  33.470700   0.000898  -0.001283  11.725400  -0.009970  -0.000000  29.434700   7.442310  12.930400  24.773700   0.001038  -0.001338  17.341600  -0.009283   0.009974  28.077300   4.896200   9.092460  35.728600  -0.005986  -0.004864  23.798300  -0.009757  -0.004484  28.404200   4.127970   7.584540  38.467800  -0.002815  -0.002122  25.610400  -0.001458   0.005222  35.517600   0.121363   0.170132  53.276700  -0.002007   0.001927  35.482300   0.005002   0.008333   3.108210   5.095530   1.050250   1.271480   0.147602   7.246550  -5.672710  -1.552780   0.865561   0.000000   0.000000   0.000000  -0.635404   3.008540  -3.934160   1.757100   2.121340  -8.790790  -3.147470  -2.372880  -2.659040   0.000000   0.000000   0.000000
 -1.315640  89.571200  -1.392460  -0.514143  -3.564720   1.242630   0.093686   3.500520  -1.231390   0.263621   6.998200  -2.475470   0.853092  -1.279580   0.020599   1.403740  -2.592580   5.540560  -9.489050   0.807225  -1.091420 -68.064000  12.579700  -4.427370  -2.860570  -9.103710  -8.226860   2.702600  -7.310200   4.215250  37.013200  27.315500 -51.616300 -32.409400   0.003324   0.002122 -11.207900   0.002041  -0.001887 -34.408300   4.501810  -6.537400 -28.365000  -0.000677  -0.011052 -19.855500   0.004606  -0.005810 -28.447200  -0.115243   0.203703 -35.566600  -0.000496   0.000221 -23.687400  -0.000958  -0.004844 -28.625700  -1.183040   2.164670 -38.178900  -0.001048  -0.000141 -25.427200  -0.001073  -0.003142 -32.981500  -2.212550   3.399350 -49.570800  -0.003277  -0.000479 -33.014200   0.001373  -0.001513  10.421400  -1.107370  10.103200  71.605100   4.872610  -1.839800   0.740470  -3.330920   9.454200 -11.892200 -11.093500   5.761820 -38.689400  35.925000  69.550900  33.463700   0.000891  -0.001313  11.725100  -0.009974   0.000000  29.422500   7.450350  12.947900  24.765600   0.001041  -0.001370  17.335900  -0.009287   0.009976  28.074400   4.905750   9.110800  35.719100  -0.005976  -0.004916  23.788900  -0.009775  -0.004516  28.402300   4.134300   7.596770  38.461900  -0.002721  -0.002165  25.610000  -0.001380   0.005233  35.517600   0.121497   0.170324  53.276800  -0.002026   0.001925  35.482300   0.005007   0.008346   3.107570   5.135750   1.050600   1.266620   0.109135   7.256890  -5.670400  -1.548630   0.866394   0.000000   0.000000  -0.000000  -0.632991   3.023150  -3.949020   1.755250   2.130120  -8.753880  -3.148890  -2.381320  -2.668300  -0.000000   0.000000  -0.000000
 -1.315650  89.571300  -1.373370  -0.514509  -3.578210   1.230310   0.096712   3.510290  -1.229960   0.269819   7.017690  -2.472840   0.853020  -1.295590   0.020567   1.404570  -2.625160   5.539850  -9.492690   0.789091  -1.083930 -68.076800  12.602900  -4.437100  -2.852640  -9.098560  -8.211680   2.705950  -7.295290   4.219110  37.002300  27.291900 -51.602600 -32.411000   0.003298   0.002128 -11.207900   0.002032  -0.001884 -34.411900   4.500460  -6.535770 -28.366700  -0.000681  -0.011043 -19.856700   0.004614  -0.005794 -28.447300  -0.115478   0.201279 -35.567600  -0.000492   0.000262 -23.688100  -0.000966  -0.004854 -28.625900  -1.183420   2.164650 -38.181000  -0.001051  -0.000073 -25.428600  -0.001075  -0.003174 -32.973400  -2.212940   3.404340 -49.558800  -0.003300  -0.000492 -33.006200   0.001331  -0.001528  10.427200  -1.144360  10.117000  71.613900   4.911670  -1.837830   0.731137  -3.398300   9.457360 -11.865400 -11.195700   5.756960 -38.775200  36.057600  69.668800  33.458000   0.000896  -0.001353  11.726100  -0.009975  -0.000000  29.404500   7.460270  12.973400  24.753300   0.001049  -0.001430  17.327300  -0.009292   0.009987  28.070300   4.919210   9.137180  35.690000  -0.005953  -0.004994  23.769200  -0.009805  -0.004564  28.396900   4.153970   7.633260  38.462600  -0.002583  -0.002231  25.611100  -0.001272   0.005251  35.508000   0.121463   0.170276  53.262400  -0.002055   0.001923  35.472700   0.005012   0.008367   3.111350   5.136110   1.050410   1.260420   0.174613   7.262460  -5.674880  -1.591560   0.866723  -0.000000   0.000000  -0.000000  -0.630452   3.052840  -3.964720   1.754460   2.125800  -8.719410  -3.150100  -2.387670  -2.676120  -0.000000   0.000000  -0.000000
